HIERARCHY
ROOT joint_0
{
	OFFSET 0.000000 0.000000 0.000000
	CHANNELS 6 Xposition Yposition Zposition Zrotation Yrotation Xrotation 
	JOINT joint_1
	{
		OFFSET 6.004005 -1.946999 100.587036
		CHANNELS 3 Zrotation Yrotation Xrotation
		JOINT joint_2
		{
			OFFSET -4.601006 -0.824997 91.925903
			CHANNELS 3 Zrotation Yrotation Xrotation
			JOINT joint_3
			{
				OFFSET -5.420998 -1.130005 91.774048
				CHANNELS 3 Zrotation Yrotation Xrotation
				JOINT joint_4
				{
					OFFSET 4.308998 -3.777992 123.473999
					CHANNELS 3 Zrotation Yrotation Xrotation
					JOINT joint_5
					{
						OFFSET 25.565002 -6.305008 79.437988
						CHANNELS 3 Zrotation Yrotation Xrotation
						End Site
						{
							OFFSET 0.000000 0.000000 0.000000
						}
					}
				}
				JOINT joint_6
				{
					OFFSET -1.750000 -28.655998 68.557983
					CHANNELS 3 Zrotation Yrotation Xrotation
					JOINT joint_7
					{
						OFFSET -17.692001 -116.544006 -17.244019
						CHANNELS 3 Zrotation Yrotation Xrotation
						JOINT joint_8
						{
							OFFSET 27.063004 -23.640991 -266.895020
							CHANNELS 3 Zrotation Yrotation Xrotation
							JOINT joint_9
							{
								OFFSET 40.722000 -15.761017 -232.488953
								CHANNELS 3 Zrotation Yrotation Xrotation
								End Site
								{
									OFFSET 0.000000 0.000000 0.000000
								}
							}
						}
					}
				}
				JOINT joint_10
				{
					OFFSET 6.593002 24.457001 69.892944
					CHANNELS 3 Zrotation Yrotation Xrotation
					JOINT joint_11
					{
						OFFSET 24.311996 114.920002 -19.872925
						CHANNELS 3 Zrotation Yrotation Xrotation
						JOINT joint_12
						{
							OFFSET 21.081001 15.319000 -268.037964
							CHANNELS 3 Zrotation Yrotation Xrotation
							JOINT joint_13
							{
								OFFSET 27.794006 -8.947001 -234.744080
								CHANNELS 3 Zrotation Yrotation Xrotation
								End Site
								{
									OFFSET 0.000000 0.000000 0.000000
								}
							}
						}
					}
				}
			}
		}
	}
	JOINT joint_14
	{
		OFFSET -6.627998 -80.520004 -98.790039
		CHANNELS 3 Zrotation Yrotation Xrotation
		JOINT joint_15
		{
			OFFSET -43.638000 -13.751999 -502.538971
			CHANNELS 3 Zrotation Yrotation Xrotation
			JOINT joint_16
			{
				OFFSET -39.532999 -9.912994 -398.071007
				CHANNELS 3 Zrotation Yrotation Xrotation
				JOINT joint_17
				{
					OFFSET 174.940004 -34.660995 -75.688002
					CHANNELS 3 Zrotation Yrotation Xrotation
					End Site
					{
						OFFSET 0.000000 0.000000 0.000000
					}
				}
			}
		}
	}
	JOINT joint_18
	{
		OFFSET 12.591003 79.842003 -98.765015
		CHANNELS 3 Zrotation Yrotation Xrotation
		JOINT joint_19
		{
			OFFSET -39.080002 -1.297001 -503.101013
			CHANNELS 3 Zrotation Yrotation Xrotation
			JOINT joint_20
			{
				OFFSET -51.570000 -0.514000 -396.815987
				CHANNELS 3 Zrotation Yrotation Xrotation
				JOINT joint_21
				{
					OFFSET 178.987999 -11.521999 -73.244003
					CHANNELS 3 Zrotation Yrotation Xrotation
					End Site
					{
						OFFSET 0.000000 0.000000 0.000000
					}
				}
			}
		}
	}
}
MOTION
Frames: 10
Frame Time: 0.016667
-1285.643066 882.995117 1095.187988 -2.575193 -0.531577 0.065247 0.398162 3.421267 0.319181 0.378497 -0.624562 -0.043498 0.406763 0.744271 0.085772 0.019793 -2.160118 -0.592316 0.000000 0.000000 0.000000 2.301950 0.026458 1.459577 0.047129 0.413792 1.133294 -0.704123 5.371605 -1.885440 0.000000 0.000000 0.000000 -1.505646 -1.020641 -0.025692 -0.113142 -0.242768 -2.563428 0.663406 1.762196 5.902958 0.000000 0.000000 0.000000 0.280363 -1.474473 -3.572195 -0.284215 0.925440 1.776644 -0.173918 2.087504 0.338468 0.000000 0.000000 0.000000 -0.652436 -3.021918 4.850279 -0.240567 3.454093 -1.077193 -0.367852 -0.849168 -0.203834 0.000000 0.000000 0.000000 
-1285.487183 882.771179 1094.998047 -2.554176 -0.515741 0.065321 0.409508 3.331187 0.339220 0.387832 -0.646281 -0.073839 0.420072 0.762885 0.109695 0.013404 -2.065830 -0.549874 0.000000 0.000000 0.000000 2.251096 0.005746 1.502579 0.044275 0.405777 1.046331 -0.701924 5.466210 -1.835629 0.000000 0.000000 0.000000 -1.473605 -0.983950 -0.076585 -0.112657 -0.239814 -2.480832 0.655982 1.795142 5.861541 0.000000 0.000000 0.000000 0.288134 -1.489801 -3.578713 -0.281579 0.954791 1.811282 -0.165350 2.036022 0.331962 0.000000 0.000000 0.000000 -0.657443 -3.053374 4.866532 -0.244063 3.494133 -1.084828 -0.372475 -0.836787 -0.204908 0.000000 0.000000 0.000000 
-1285.165771 882.460022 1094.858032 -2.538383 -0.502913 0.055475 0.446079 3.338090 0.374754 0.422162 -0.671028 -0.095957 0.457579 0.785731 0.126922 0.005762 -2.046215 -0.522064 0.000000 0.000000 0.000000 2.161378 0.085714 1.463764 0.044695 0.441934 1.208781 -0.718647 5.333992 -1.981543 0.000000 0.000000 0.000000 -1.483782 -0.981986 -0.025949 -0.114480 -0.205106 -2.578102 0.659366 1.753615 5.887098 0.000000 0.000000 0.000000 0.290757 -1.491989 -3.574533 -0.283437 0.983380 1.857011 -0.159703 1.975513 0.322410 0.000000 0.000000 0.000000 -0.661880 -3.071066 4.901583 -0.245266 3.535518 -1.099203 -0.375765 -0.830066 -0.205800 0.000000 0.000000 0.000000 
-1284.629395 881.962708 1094.850952 -2.535627 -0.549020 0.016243 0.538947 3.623331 0.464466 0.512019 -0.701449 -0.094006 0.548241 0.823840 0.123901 0.002243 -2.182956 -0.546110 0.000000 0.000000 0.000000 1.988584 0.389543 1.235289 0.054068 0.570704 1.956622 -0.778033 4.656590 -2.580581 0.000000 0.000000 0.000000 -1.597482 -1.083799 0.247389 -0.124207 -0.121943 -3.093171 0.688915 1.560336 6.080972 0.000000 0.000000 0.000000 0.273661 -1.416268 -3.534321 -0.300007 1.007753 1.920576 -0.166031 1.900669 0.304855 0.000000 0.000000 0.000000 -0.666972 -3.009259 4.985607 -0.242156 3.581535 -1.129397 -0.376948 -0.841869 -0.207018 0.000000 0.000000 0.000000 
-1283.951416 881.307373 1094.938965 -2.543528 -0.654426 -0.047716 0.677653 4.143209 0.604177 0.647088 -0.741143 -0.073629 0.682442 0.875804 0.105773 0.004445 -2.434515 -0.617418 0.000000 0.000000 0.000000 1.738589 0.867015 0.887606 0.068427 0.776389 3.144849 -0.871510 3.533847 -3.540618 0.000000 0.000000 0.000000 -1.788822 -1.270313 0.692670 -0.140340 -0.004585 -3.937885 0.738952 1.247002 6.406425 0.000000 0.000000 0.000000 0.242467 -1.267059 -3.463411 -0.326046 1.030266 1.997897 -0.179627 1.811363 0.281303 0.000000 0.000000 0.000000 -0.672904 -2.874018 5.110189 -0.235844 3.635301 -1.171526 -0.376626 -0.869995 -0.208663 0.000000 0.000000 0.000000 
-1282.792603 880.709595 1095.046997 -2.549265 -0.572991 -0.086092 0.801216 4.438880 0.665362 0.770495 -0.743835 -0.043040 0.802386 0.881997 0.077801 -0.012373 -2.760630 -0.649304 0.000000 0.000000 0.000000 1.536664 1.309131 0.655672 0.071063 1.007399 4.111472 -0.958664 2.580087 -4.392219 0.000000 0.000000 0.000000 -1.925693 -1.360796 1.130228 -0.145787 0.181274 -4.693611 0.781173 0.895493 6.661407 0.000000 0.000000 0.000000 0.221428 -1.294232 -3.433483 -0.353248 1.052248 2.089073 -0.193490 1.732236 0.259654 0.000000 0.000000 0.000000 -0.671310 -2.902766 5.206193 -0.225875 3.652997 -1.214810 -0.372867 -0.867917 -0.206987 0.000000 0.000000 0.000000 
-1280.925781 880.365173 1095.090942 -2.549818 -0.083825 -0.050088 0.860704 4.155971 0.520230 0.836920 -0.665013 -0.005616 0.861564 0.790135 0.043023 -0.079795 -3.214961 -0.556254 0.000000 0.000000 0.000000 1.497951 1.549100 0.666077 0.056060 1.198434 4.427159 -1.015438 2.328210 -4.795961 0.000000 0.000000 0.000000 -1.923344 -1.209824 1.445822 -0.125794 0.482409 -5.067603 0.794192 0.537794 6.680231 0.000000 0.000000 0.000000 0.233017 -1.695385 -3.522085 -0.373312 1.008723 2.211972 -0.200541 1.692014 0.248644 0.000000 0.000000 0.000000 -0.660888 -3.268789 5.217343 -0.216130 3.504359 -1.262048 -0.369132 -0.791871 -0.200624 0.000000 0.000000 0.000000 
-1278.484497 880.194458 1095.097046 -2.547356 0.718394 0.041214 0.879081 3.472212 0.218243 0.868579 -0.522035 0.040135 0.882763 0.618088 -0.000001 -0.188775 -3.814553 -0.369855 0.000000 0.000000 0.000000 1.570810 1.667400 0.820411 0.030371 1.367007 4.350518 -1.056962 2.550317 -4.926030 0.000000 0.000000 0.000000 -1.833889 -0.884615 1.703194 -0.086823 0.885040 -5.210897 0.788780 0.145939 6.537165 0.000000 0.000000 0.000000 0.267752 -2.373358 -3.702565 -0.389174 0.896696 2.365760 -0.203636 1.687322 0.246375 0.000000 0.000000 0.000000 -0.645239 -3.880117 5.169583 -0.207226 3.203427 -1.317549 -0.366843 -0.653346 -0.190868 0.000000 0.000000 0.000000 
-1275.452515 879.946960 1095.230957 -2.525031 1.573865 0.116065 0.893770 2.620410 -0.061639 0.896917 -0.378045 0.078734 0.901388 0.434460 -0.038873 -0.274885 -4.203596 -0.201622 0.000000 0.000000 0.000000 1.676180 1.848996 0.993249 -0.015473 1.632800 4.119118 -1.079375 2.660537 -4.991094 0.000000 0.000000 0.000000 -1.661837 -0.509478 1.889318 -0.045011 1.277527 -5.206728 0.781551 -0.177955 6.405592 0.000000 0.000000 0.000000 0.297942 -3.187345 -3.836124 -0.412467 1.017656 2.470847 -0.212573 1.662748 0.237678 0.000000 0.000000 0.000000 -0.601688 -4.663544 5.111034 -0.176846 3.206155 -1.336335 -0.341021 -0.508833 -0.171120 0.000000 0.000000 0.000000 
-1271.586670 879.384155 1095.625000 -2.484413 2.390708 0.127301 0.931839 1.597651 -0.208063 0.943255 -0.261336 0.097848 0.940979 0.284718 -0.066486 -0.285352 -4.053561 -0.135083 0.000000 0.000000 0.000000 1.817854 2.247679 1.170562 -0.096402 2.131487 3.858250 -1.091085 2.299409 -5.177421 0.000000 0.000000 0.000000 -1.362753 -0.156049 1.936594 -0.018487 1.561611 -5.051280 0.785534 -0.230539 6.468042 0.000000 0.000000 0.000000 0.311085 -4.080025 -3.824927 -0.443052 1.478450 2.466685 -0.232633 1.663471 0.229236 0.000000 0.000000 0.000000 -0.497182 -5.595644 5.077538 -0.090849 3.705092 -1.302972 -0.258406 -0.297962 -0.124009 0.000000 0.000000 0.000000 
